#!OML:ASF H:\Terrain\Patient Classification 1\Takeo\Monday\TakeoMonday.ASF
:FULLY-SPECIFIED
:DEGREES
937
root 6.45728 17.608 2.23762 -357.93 75.23 -356.54
lowerback 9.46436 -1.50861 3.03929
upperback 3.96607 -1.68575 -3.40725
thorax -1.37148 -0.744027 -5.08222
lowerneck -8.02067 -7.48256 -5.89751
upperneck -9.97426 -8.97687 7.21028
head -1.18005 -4.25951 3.16175
rclavicle 5.42682e-014 2.38542e-014
rhumerus -20.5693 25.8616 -99.785
rradius 66.7421
rwrist -6.283
rhand -47.5237 41.7783
rfingers 7.12502
rthumb -20.2107 12.8097
lclavicle 5.42682e-014 2.38542e-014
lhumerus -23.0517 -30.364 100.431
lradius 80.624
lwrist 29.6581
lhand -28.3019 20.6655
lfingers 7.12502
lthumb -1.67751 50.6387
rfemur -8.98836 12.9471 15.8152
rtibia 28.7192
rfoot -16.7524 -3.16545
rtoes 4.32516
lfemur -12.3923 -21.9968 -15.9525
ltibia 29.2295
lfoot -14.8123 -1.93773
ltoes -17.3336
938
root 6.4809 17.6098 2.21488 -361.241 74.0625 -359.388
lowerback 9.91508 -1.27929 3.3357
upperback 4.02853 -1.34026 -3.23957
thorax -1.51736 -0.571309 -5.1092
lowerneck -6.32843 -8.13259 -8.82329
upperneck -11.5681 -9.4855 11.2616
head -1.39213 -4.51667 4.69637
rclavicle -5.06901e-014 -1.66979e-014
rhumerus -20.8493 26.1028 -100.253
rradius 67.2825
rwrist -6.43717
rhand -47.6144 41.0715
rfingers 7.12502
rthumb -20.2979 12.1122
lclavicle -5.06901e-014 -1.66979e-014
lhumerus -22.9196 -30.6729 100.591
lradius 80.7045
lwrist 29.6463
lhand -28.6479 20.3178
lfingers 7.12502
lthumb -2.01167 50.2881
rfemur -8.35352 14.0875 16.6268
rtibia 28.4857
rfoot -16.5707 -2.82076
rtoes 5.80836
lfemur -11.6583 -21.2273 -15.4951
ltibia 29.3605
lfoot -13.4752 -2.57342
ltoes -13.9855
939
root 6.5065 17.6099 2.19126 -364.062 72.5809 -361.892
lowerback 10.1909 -1.06401 3.59419
upperback 4.10505 -1.01845 -3.01574
thorax -1.55205 -0.409169 -5.05686
lowerneck -7.29338 -7.57805 -6.3598
upperneck -10.4469 -9.07812 7.75734
head -1.4025 -4.31478 3.47367
rclavicle -5.06901e-014 -2.38542e-014
rhumerus -20.9914 26.599 -100.689
rradius 67.7659
rwrist -6.24239
rhand -47.9028 40.8677
rfingers 7.12502
rthumb -20.575 11.9381
lclavicle -5.06901e-014 -2.38542e-014
lhumerus -22.6058 -30.5233 100.657
lradius 80.5573
lwrist 29.3867
lhand -28.6474 20.0068
lfingers 7.12502
lthumb -2.01116 49.9771
rfemur -7.9448 15.16 17.4734
rtibia 28.2745
rfoot -16.3301 -2.57733
rtoes 5.14109
lfemur -10.9291 -20.3558 -14.9934
ltibia 29.5145
lfoot -12.7494 -2.90633
ltoes -9.6115
940
root 6.54209 17.606 2.13238 -364.773 72.0308 -362.544
lowerback 10.041 -1.22607 3.83531
upperback 4.10945 -1.21825 -3.00494
thorax -1.49175 -0.507216 -5.16098
lowerneck -7.7108 -7.21095 -5.6468
upperneck -10.0714 -8.67138 6.81426
head -1.31477 -4.12053 3.01232
rclavicle 2.84262e-014 3.97569e-015
rhumerus -20.9297 27.689 -101.084
rradius 67.8193
rwrist -6.80136
rhand -47.8197 41.5714
rfingers 7.12502
rthumb -20.4951 12.6332
lclavicle 2.84262e-014 3.97569e-015
lhumerus -22.4633 -30.2265 100.703
lradius 80.7127
lwrist 29.0193
lhand -28.6392 20.456
lfingers 7.12502
lthumb -2.00324 50.4263
rfemur -7.80555 15.083 17.4669
rtibia 28.0709
rfoot -16.024 -2.16817
rtoes 4.3549
lfemur -10.7451 -20.5012 -15.043
ltibia 29.7398
lfoot -12.7606 -2.60434
ltoes -7.57224
941
root 6.57191 17.5938 2.06483 -364.557 71.5446 -362.29
lowerback 9.97989 -1.29681 3.95733
upperback 4.01469 -1.31033 -3.16579
thorax -1.57317 -0.557104 -5.39005
lowerneck -7.42798 -7.2165 -5.77141
upperneck -9.97719 -8.68801 7.04701
head -1.3139 -4.1364 3.12091
rclavicle -2.70347e-014 7.95139e-015
rhumerus -20.9997 28.46 -101.531
rradius 68.0523
rwrist -7.45174
rhand -47.8585 41.1227
rfingers 7.12502
rthumb -20.5324 12.1885
lclavicle -2.70347e-014 7.95139e-015
lhumerus -22.6833 -30.3927 100.865
lradius 81.1326
lwrist 29.1251
lhand -29.3772 20.1559
lfingers 7.12502
lthumb -2.71598 50.1183
rfemur -7.81266 14.6984 17.0801
rtibia 27.8947
rfoot -15.6919 -1.46021
rtoes 4.46509
lfemur -10.7086 -20.514 -15.3955
ltibia 30.0809
lfoot -13.1319 -2.01985
ltoes -8.17535
